<?xml version="1.0" encoding="UTF-8"?>
<svg version="1.1" xmlns="http://www.w3.org/2000/svg" width="4741" height="3718">
<path d="M0 0 C53.46 0 106.92 0 162 0 C162.33 138.6 162.66 277.2 163 420 C224.79010519 352.89939869 224.79010519 352.89939869 285.76977539 285.06835938 C293.73127954 276.53120624 301.70350287 268.07151666 309.97265625 259.84375 C310.77125131 259.0452021 310.77125131 259.0452021 311.58597961 258.23052192 C345.01209996 224.86961127 374.50435592 208.01488497 422.46250916 207.8717041 C445.93516068 208.02103369 469.32170491 210.15493817 492.53567076 213.53691483 C502.30078029 214.95542679 512.08252858 216.00200841 521.9075312 216.91166162 C535.07215514 218.17641309 548.47183045 220.28832016 561.21264648 223.91430664 C569.39143798 226.16136104 574.97637791 225.77541766 583.0625 223.4375 C592.60213982 220.95877299 602.0466194 219.03743726 611.8125 217.6875 C612.9372876 217.52886475 614.0620752 217.37022949 615.22094727 217.20678711 C628.98594222 215.34951631 642.62919927 214.75995072 656.5 214.75 C657.77923843 214.74898788 657.77923843 214.74898788 659.08432007 214.74795532 C731.06273056 214.83767992 801.73747457 238.93028467 858 284 C858.93070313 284.73734375 859.86140625 285.4746875 860.8203125 286.234375 C877.97459803 300.01645055 894.51451581 315.58332301 908 333 C908.91055836 334.10186349 909.82487863 335.20062498 910.7421875 336.296875 C949.35261439 382.77050539 971.56106598 441.48852788 979 501 C979.33 406.62 979.66 312.24 980 215 C1024.55 215 1069.1 215 1115 215 C1115 234.47 1115 253.94 1115 274 C1122.425 269.05 1122.425 269.05 1130 264 C1133.0088344 262.14039002 1135.99673597 260.31690086 1139.0625 258.5625 C1140.2395752 257.88791748 1140.2395752 257.88791748 1141.44042969 257.19970703 C1190.53785516 229.40998546 1245.05009189 214.79049639 1301.5 214.75 C1302.77923843 214.74898788 1302.77923843 214.74898788 1304.08432007 214.74795532 C1382.15841098 214.84527848 1458.87694753 243.65809688 1517 296 C1517.55913086 296.50273438 1518.11826172 297.00546875 1518.69433594 297.5234375 C1528.63969883 306.50561052 1538.40503499 315.69599755 1547 326 C1547.67820801 326.80751709 1547.67820801 326.80751709 1548.37011719 327.63134766 C1589.91793309 377.26306767 1612.03049535 432.37687304 1623 496 C1623.33 403.27 1623.66 310.54 1624 215 C1668.55 215 1713.1 215 1759 215 C1759.33 234.47 1759.66 253.94 1760 274 C1763.3 271.69 1766.6 269.38 1770 267 C1843.778011 218.80921585 1932.83671348 204.43467304 2018.60546875 222.3359375 C2066.82474093 232.90164013 2111.46667476 255.34172418 2150 286 C2150.57250488 286.45536133 2151.14500977 286.91072266 2151.73486328 287.37988281 C2161.00412308 294.86424652 2169.43643011 303.23397047 2177.875 311.625 C2178.4093869 312.15402924 2178.9437738 312.68305847 2179.49435425 313.2281189 C2186.46534574 320.14604096 2192.94229739 327.25109762 2199 335 C2199.62438965 335.79067871 2200.2487793 336.58135742 2200.89208984 337.39599609 C2215.94399414 356.63597406 2228.19175317 377.11779383 2239 399 C2239.40702148 399.81726562 2239.81404297 400.63453125 2240.23339844 401.4765625 C2256.80055033 435.13857105 2264.83301063 471.93802591 2269 509 C2269.15033691 507.97455078 2269.30067383 506.94910156 2269.45556641 505.89257812 C2279.51250953 437.76907139 2302.83957233 374.89978693 2349.90234375 323.31640625 C2351.70591613 321.32475183 2353.45106096 319.29978143 2355.1875 317.25 C2363.14484844 308.14797498 2371.8228399 299.61856531 2381.3125 292.12890625 C2384.1468897 289.88364115 2386.87997006 287.54091562 2389.625 285.1875 C2445.2759229 238.85954099 2518.58626392 214.80158993 2590.5 214.75 C2591.77923843 214.74898788 2591.77923843 214.74898788 2593.08432007 214.74795532 C2666.02360024 214.83887769 2735.96170701 239.75506017 2793 285 C2793.89847656 285.70382812 2794.79695313 286.40765625 2795.72265625 287.1328125 C2810.53030974 298.95276566 2824.87215871 312.43704097 2837 327 C2837.44537109 327.52625977 2837.89074219 328.05251953 2838.34960938 328.59472656 C2855.69768115 349.14085814 2870.59142391 371.84632431 2882.12060547 396.16015625 C2882.95636826 397.90871493 2883.82308937 399.64237694 2884.69140625 401.375 C2901.3493302 435.38653846 2908.9733842 471.75734659 2914 509 C2914.08975098 508.22736816 2914.17950195 507.45473633 2914.27197266 506.65869141 C2916.42878899 488.46676486 2919.28625934 470.73780041 2924 453 C2924.38430176 451.55367187 2924.38430176 451.55367187 2924.77636719 450.078125 C2936.43397656 407.25067173 2957.58693622 367.05187991 2986 333 C2987.14275391 331.58074219 2987.14275391 331.58074219 2988.30859375 330.1328125 C2995.08224209 321.86055812 3002.52660642 314.25843752 3010.0625 306.6875 C3010.569021 306.17580261 3011.07554199 305.66410522 3011.59741211 305.13690186 C3018.39168829 298.28797487 3025.4099687 291.97704312 3033 286 C3034.0601684 285.14226387 3035.12012165 284.28426161 3036.1796875 283.42578125 C3050.8389609 271.93206109 3066.4990917 261.64895551 3083 253 C3083.64211426 252.66307129 3084.28422852 252.32614258 3084.94580078 251.97900391 C3162.65690977 211.54913786 3252.16694985 203.95870257 3335.76416016 229.95605469 C3369.72200341 240.91152004 3401.48699146 257.59860823 3430 279 C3430.57556641 279.43135254 3431.15113281 279.86270508 3431.74414062 280.30712891 C3440.07555403 286.59702453 3447.83107133 293.34393552 3455.41210938 300.51367188 C3457.00280727 302.00262772 3458.61361641 303.46574002 3460.234375 304.921875 C3465.20723553 309.3926274 3470.01421451 313.86994323 3474.31640625 319.0078125 C3476.18511177 321.21904177 3478.15234194 323.31858701 3480.125 325.4375 C3500.32387317 347.92626234 3515.78332655 373.95976504 3529 401 C3529.33 401.66 3529.66 402.32 3530 403 C3530.33 287.83 3530.66 172.66 3531 54 C3584.46 54 3637.92 54 3693 54 C3693 89.31 3693 124.62 3693 161 C3746.13 161 3799.26 161 3854 161 C3854 214.46 3854 267.92 3854 323 C3800.87 323 3747.74 323 3693 323 C3693.0904952 381.00394256 3693.0904952 381.00394256 3693.20898438 439.0078125 C3693.22703393 446.83105418 3693.24489781 454.65429625 3693.26245117 462.47753906 C3693.26465886 463.45802475 3693.26686655 464.43851044 3693.26914114 465.44870782 C3693.30448949 481.26791038 3693.32936008 497.08711289 3693.35034702 512.90634027 C3693.37212674 529.14696799 3693.4051978 545.38754457 3693.44870156 561.62812877 C3693.47518084 571.64553166 3693.49290363 581.66287085 3693.49934604 591.680307 C3693.50461132 598.55413735 3693.52086651 605.4278876 3693.54566566 612.30167499 C3693.55964164 616.26462208 3693.56886611 620.22742592 3693.56500816 624.19039917 C3693.56157697 627.82538019 3693.57208215 631.46005621 3693.59323552 635.09497485 C3693.60092836 637.01871668 3693.59409578 638.94250011 3693.58658296 640.86624265 C3693.71679961 656.92821924 3698.3317697 671.02143399 3709.5859375 682.74609375 C3721.78333344 694.13427734 3734.94347405 697.53299042 3751.16015625 697.2734375 C3763.14452237 696.80509895 3775.06903994 690.88844385 3783.8125 682.75 C3793.99041842 671.60393812 3797.34690413 659.59202729 3800 645 C3845.21 644.67 3890.42 644.34 3937 644 C3932.38 635.42 3927.76 626.84 3923 618 C3920.68184265 613.27607362 3918.42584168 608.61797309 3916.3125 603.8125 C3915.78760986 602.6258374 3915.26271973 601.4391748 3914.72192383 600.21655273 C3876.09925969 511.80020747 3869.32386336 410.11511964 3908 277 C3924.9046128 233.96336566 3948.07005494 192.9116186 3978.48828125 157.9140625 C3980.89754231 155.11887005 3983.2024438 152.26219451 3985.5 149.375 C3989.50847254 144.43983757 3993.89532838 140.00368101 3998.43359375 135.56640625 C4000.6350832 133.3649168 4002.67855033 131.12504528 4004.6875 128.75 C4007.55371599 125.39126002 4010.6775738 122.55764303 4014.04296875 119.70703125 C4015.89980925 118.08739193 4017.60397492 116.39876709 4019.3125 114.625 C4022.98703141 110.89227465 4026.99486008 107.64613074 4031.07421875 104.3671875 C4033.92457342 102.06102604 4036.71084473 99.69205904 4039.5 97.3125 C4052.90027827 86.14849068 4067.19774824 76.20318706 4082 67 C4082.89452881 66.43901611 4082.89452881 66.43901611 4083.80712891 65.86669922 C4165.26618957 14.97474617 4262.01845393 -6.96432784 4418.140625 11.00390625 C4487.1681865 27.02768407 4551.47379243 59.52066009 4605 106 C4605.73476563 106.63421875 4606.46953125 107.2684375 4607.2265625 107.921875 C4609.16183672 109.60271077 4611.08137802 111.30020252 4613 113 C4613.68449219 113.59167969 4614.36898437 114.18335938 4615.07421875 114.79296875 C4621.00102025 119.9952716 4626.60304347 125.49674522 4632.1875 131.0625 C4633.32807861 132.19619019 4633.32807861 132.19619019 4634.49169922 133.3527832 C4639.20004772 138.07396798 4643.65962065 142.9405598 4648 148 C4648.9255881 149.04819724 4649.85258904 150.09514923 4650.78125 151.140625 C4685.92591762 191.12442326 4741 266.87730219 4741 323 C4693.15 323 4645.3 323 4596 323 C4590.555 311.12 4590.555 311.12 4585 299 C4568.87880633 268.38784572 4547.79016785 236.97636641 4520.92578125 214.6171875 C4518.70986054 212.75635348 4516.61674763 210.78532283 4514.5 208.8125 C4463.6628536 163.03571274 4393.83246961 138.13856062 4326 136 C4324.72253906 135.95875 4323.44507812 135.9175 4322.12890625 135.875 C4276.01324928 134.90714053 4229.6106225 145.29482094 4188 165 C4187.21157715 165.36963867 4186.4231543 165.73927734 4185.61083984 166.12011719 C4165.56707425 175.58311426 4147.27563561 187.13341061 4130 201 C4128.99710938 201.79019531 4127.99421875 202.58039063 4126.9609375 203.39453125 C4112.97087872 214.58254656 4099.43964842 227.20238324 4088 241 C4087.59233398 241.4832373 4087.18466797 241.96647461 4086.76464844 242.46435547 C4053.10731398 282.50912545 4030.64854534 331.44618515 4022 383 C4021.84901855 383.85255371 4021.69803711 384.70510742 4021.54248047 385.58349609 C4009.05898703 458.58567291 4028.438592 536.92668288 4070.8828125 597.12109375 C4078.26291388 607.41368804 4086.22365219 617.19098127 4094.765625 626.54296875 C4096.23125076 628.15464463 4097.67993549 629.78192582 4099.109375 631.42578125 C4108.76215748 642.47011448 4119.69870759 651.87824239 4131.35058594 660.74023438 C4132.87165121 661.90197161 4134.377966 663.08295431 4135.8828125 664.265625 C4178.76312132 697.47098949 4231.34731887 716.96227313 4285 723 C4286.16088135 723.14139404 4286.16088135 723.14139404 4287.34521484 723.28564453 C4296.74248231 724.30269632 4306.18388309 724.24370848 4315.625 724.25 C4316.53628662 724.25067474 4317.44757324 724.25134949 4318.38647461 724.25204468 C4333.12073767 724.23475928 4347.45533404 723.50967763 4362 721 C4362.98677734 720.83902832 4363.97355469 720.67805664 4364.99023438 720.51220703 C4390.77940345 716.22362476 4415.40049295 708.1809992 4439 697 C4439.86415527 696.59668457 4440.72831055 696.19336914 4441.61865234 695.77783203 C4468.15920955 683.31858465 4491.0191359 666.23325609 4513 647 C4474.06 646.67 4435.12 646.34 4395 646 C4395 610.03 4395 574.06 4395 537 C4509.18 537 4623.36 537 4741 537 C4741 643.92 4741 750.84 4741 861 C4705.69 861 4670.38 861 4634 861 C4633.505 789.72 4633.505 789.72 4633 717 C4630.69 719.64 4628.38 722.28 4626 725 C4617.38143204 734.47377316 4608.58413445 743.50342691 4599 752 C4598.18402344 752.75410156 4597.36804687 753.50820312 4596.52734375 754.28515625 C4590.20268288 760.11618505 4583.53116354 765.41529333 4576.72314453 770.66210938 C4575.15600887 771.87887099 4573.60626487 773.11794956 4572.05859375 774.359375 C4554.90393597 787.97345761 4536.20888927 799.53988989 4517 810 C4516.11586426 810.48919922 4515.23172852 810.97839844 4514.32080078 811.48242188 C4484.35563879 828.00973733 4451.78391301 840.19624205 4418.625 848.625 C4417.23704224 848.97860596 4417.23704224 848.97860596 4415.82104492 849.33935547 C4413.22244729 849.96256045 4410.62549996 850.50300395 4408 851 C4406.57953369 851.29003906 4406.57953369 851.29003906 4405.13037109 851.5859375 C4398.2273187 852.6718898 4398.2273187 852.6718898 4395.06005859 850.93798828 C4393.28824487 849.32133192 4391.84774853 847.64243373 4390.375 845.75 C4389.55418945 844.78416992 4389.55418945 844.78416992 4388.71679688 843.79882812 C4387.10871189 841.89217977 4385.55036801 839.95369063 4384 838 C4383.21882813 837.04609375 4382.43765625 836.0921875 4381.6328125 835.109375 C4380.20726287 833.36529596 4378.79060579 831.61391166 4377.3828125 829.85546875 C4373.44211474 825.13309159 4369.20117297 820.69310784 4364.99609375 816.20703125 C4360.53362004 811.44513641 4356.28895844 806.51119265 4352.0546875 801.546875 C4351.25526733 800.61101562 4351.25526733 800.61101562 4350.43969727 799.65625 C4349.37845988 798.41301797 4348.31896679 797.16829425 4347.26147461 795.921875 C4346.7691333 795.344375 4346.27679199 794.766875 4345.76953125 794.171875 C4345.33229736 793.6572168 4344.89506348 793.14255859 4344.44458008 792.61230469 C4342.70529285 790.67107554 4340.84302614 788.84302614 4339 787 C4338.67 811.09 4338.34 835.18 4338 860 C4307.43198309 861.17569296 4307.43198309 861.17569296 4293.25 860.3125 C4292.45493042 860.26743317 4291.65986084 860.22236633 4290.84069824 860.17593384 C4275.09899661 859.27285235 4259.56709392 857.54947711 4244 855 C4242.90365234 854.82098145 4241.80730469 854.64196289 4240.67773438 854.45751953 C4163.59692529 841.49897319 4088.5798013 806.96720753 4030 755 C4028.58384449 753.77024445 4027.16726131 752.54098098 4025.75 751.3125 C4024.49888125 750.20960114 4023.24906232 749.10522728 4022 748 C4021.27546631 747.36030273 4020.55093262 746.72060547 4019.80444336 746.06152344 C4013.60824929 740.54231978 4007.6657096 734.81770365 4001.8125 728.9375 C4000.96236328 728.09123047 4000.11222656 727.24496094 3999.23632812 726.37304688 C3994.28187667 721.41094375 3989.54971937 716.33407848 3985 711 C3984.14277344 710.02417969 3983.28554687 709.04835938 3982.40234375 708.04296875 C3974.38988096 698.76070203 3967.17627291 688.93698463 3960 679 C3959.86013672 679.66717041 3959.72027344 680.33434082 3959.57617188 681.02172852 C3946.83837994 740.93747571 3915.88641786 792.1448026 3864.12353516 826.23583984 C3814.74525036 857.71986078 3756.34452257 867.835166 3699 856 C3691.88829305 854.35326585 3684.92712433 852.29536113 3678 850 C3677.30293945 849.77086914 3676.60587891 849.54173828 3675.88769531 849.30566406 C3644.97645168 838.93165195 3618.37994005 821.45704768 3595 799 C3594.1028125 798.1440625 3593.205625 797.288125 3592.28125 796.40625 C3558.34643154 763.30932829 3538.13987104 717.59838971 3532 671 C3529.6834451 673.91769431 3527.94930522 676.86162696 3526.28515625 680.19140625 C3525.77025635 681.20895996 3525.25535645 682.22651367 3524.72485352 683.27490234 C3524.17627686 684.35980957 3523.6277002 685.4447168 3523.0625 686.5625 C3504.37811964 722.90731593 3477.97379554 758.40507443 3445.67578125 783.87890625 C3442.9033404 786.07662214 3440.240784 788.37630947 3437.5625 790.6875 C3424.16912367 801.83134283 3409.57150341 811.32859139 3394.32373047 819.72070312 C3392.79774234 820.56081426 3391.2757647 821.40825985 3389.75830078 822.26367188 C3316.76828766 863.36764588 3227.53814977 870.69709171 3147.4375 848.75 C3100.04501348 835.26736795 3056.71576361 811.29775692 3020.32421875 778.10546875 C3018.28726075 776.26022445 3016.21729153 774.4691833 3014.125 772.6875 C3005.77770176 765.38572194 2998.14504187 757.5017643 2991.2578125 748.8125 C2989.28707082 746.35759686 2987.24802492 743.98512455 2985.17041016 741.62084961 C2972.61704693 727.21449983 2962.47035776 711.15810669 2953.33007812 694.42529297 C2952.12080687 692.22028184 2950.88555779 690.03265115 2949.640625 687.84765625 C2929.34210008 651.6403181 2917.75296997 609.21378679 2914.2746582 567.97094727 C2914.20199131 566.0010764 2914.20199131 566.0010764 2913 565 C2910.30606589 564.90105526 2907.63775324 564.86823915 2904.9433279 564.87695217 C2903.65505639 564.8752214 2903.65505639 564.8752214 2902.34075919 564.87345567 C2899.4251876 564.87078129 2896.50966981 564.87531788 2893.59410095 564.87974548 C2891.49783918 564.87930995 2889.40157746 564.87843537 2887.30531603 564.87715632 C2881.515569 564.87490786 2875.72584029 564.8789374 2869.9360956 564.88393438 C2863.70360778 564.8882337 2857.47112108 564.88679283 2851.2386322 564.8860321 C2840.43066543 564.88550654 2829.62270606 564.88862201 2818.81474113 564.89426994 C2807.47538156 564.90018043 2796.13602439 564.90403457 2784.79666328 564.90512276 C2784.09246786 564.9051915 2783.38827244 564.90526024 2782.66273776 564.90533106 C2779.0867039 564.90566938 2775.51067004 564.90597077 2771.93463618 564.90625793 C2746.5842708 564.90836015 2721.23390854 564.91510255 2695.88354492 564.92456055 C2671.25105811 564.93374013 2646.61857216 564.94082612 2621.98608398 564.94506836 C2621.22723511 564.94519989 2620.46838623 564.94533141 2619.68654193 564.94546692 C2612.0660944 564.94678541 2604.44564686 564.94806123 2596.82519931 564.94930578 C2581.30050412 564.95184222 2565.77580899 564.95466347 2550.25111389 564.95765686 C2549.53726281 564.95779415 2548.82341173 564.95793144 2548.08792879 564.95807289 C2500.39195119 564.96727858 2452.69597544 564.98314511 2405 565 C2405.77025448 568.95427486 2406.54852751 572.90693243 2407.328125 576.859375 C2407.54355957 577.96587402 2407.75899414 579.07237305 2407.98095703 580.21240234 C2415.78756459 619.65173197 2434.45983731 654.67087076 2463 683 C2463.76111084 683.75700195 2463.76111084 683.75700195 2464.53759766 684.52929688 C2499.86454759 719.21605496 2549.03207049 737.33756839 2598.0625 738.1875 C2646.26072061 737.69009834 2692.1537056 720.30274954 2728 688 C2729.25683594 686.92298828 2729.25683594 686.92298828 2730.5390625 685.82421875 C2735.49987665 681.5519457 2739.85220812 677.05966052 2744 672 C2744.4424707 671.46455566 2744.88494141 670.92911133 2745.34082031 670.37744141 C2746.88119881 668.5081438 2748.41077302 666.63046044 2749.9375 664.75 C2750.41550049 664.16661865 2750.89350098 663.5832373 2751.38598633 662.98217773 C2752.10564575 662.08607788 2752.10564575 662.08607788 2752.83984375 661.171875 C2753.32147224 660.57354984 2753.80310074 659.97522469 2754.29932404 659.35876846 C2756.10104064 656.9692561 2756.10104064 656.9692561 2757.60068512 654.01548386 C2762.26416828 645.6678975 2762.26416828 645.6678975 2766.83441162 643.90940094 C2770.284365 643.52201324 2773.55570502 643.51352332 2777.02539062 643.63769531 C2778.31403015 643.63594299 2779.60266968 643.63419067 2780.93035889 643.63238525 C2784.4442105 643.62895831 2787.95309083 643.69920175 2791.4657917 643.78327274 C2795.14372257 643.85858278 2798.8217833 643.86535974 2802.50036621 643.87957764 C2809.45688886 643.9167925 2816.41113311 644.01514174 2823.36665487 644.13577151 C2831.28897842 644.27016881 2839.21141416 644.33594454 2847.13459492 644.39611673 C2863.42439451 644.52135817 2879.711906 644.73225427 2896 645 C2895.52628432 646.60191816 2895.05076228 648.20330223 2894.57447815 649.80445862 C2894.17755941 651.14220006 2894.17755941 651.14220006 2893.77262211 652.50696659 C2892.89270696 655.34620433 2891.84118108 658.05343748 2890.65234375 660.77734375 C2890.21736572 661.77556152 2889.7823877 662.7737793 2889.33422852 663.80224609 C2888.6428479 665.35419678 2888.6428479 665.35419678 2887.9375 666.9375 C2887.45144287 668.03143066 2886.96538574 669.12536133 2886.46459961 670.25244141 C2869.24019728 708.57177258 2844.96248995 740.94828196 2815.5 770.6875 C2814.63375 771.56688232 2813.7675 772.44626465 2812.875 773.35229492 C2765.89463956 820.39014263 2700.95846817 848.20013986 2636 858 C2635.1862793 858.12600586 2634.37255859 858.25201172 2633.53417969 858.38183594 C2584.27061037 865.75714596 2531.78725974 859.43640025 2485 843 C2484.14809082 842.70399902 2483.29618164 842.40799805 2482.41845703 842.10302734 C2436.16234818 825.84090816 2395.74126323 798.77574112 2361.125 764.375 C2360.32301178 763.58118423 2360.32301178 763.58118423 2359.50482178 762.77133179 C2352.53341789 755.8528695 2346.06903707 748.74046038 2340 741 C2339.42685059 740.28086426 2338.85370117 739.56172852 2338.26318359 738.82080078 C2301.98135403 693.07799947 2279.2493163 638.74521409 2271 581 C2270.67 673.4 2270.34 765.8 2270 861 C2225.12 861 2180.24 861 2134 861 C2133.9906543 850.76548828 2133.98130859 840.53097656 2133.97167969 829.98632812 C2133.93890682 797.16392773 2133.88657605 764.34158424 2133.82207905 731.51923147 C2133.81206272 726.41288637 2133.8022184 721.30654095 2133.79248047 716.20019531 C2133.78956841 714.67545311 2133.78956841 714.67545311 2133.78659752 713.11990803 C2133.75565586 696.70468111 2133.73861882 680.28946813 2133.72680578 663.87421757 C2133.71435348 647.00523702 2133.68676066 630.13632916 2133.64538693 613.26739454 C2133.62036775 602.87535112 2133.6068742 592.48342839 2133.60857043 582.09135443 C2133.6086004 574.94550119 2133.59379972 567.79977003 2133.56783572 560.65396446 C2133.55332358 556.54367395 2133.54486964 552.43363369 2133.55419731 548.3233223 C2133.66567373 492.71676082 2116.76315548 442.9849862 2077 403 C2039.26304862 368.35194582 1990.80848449 349.2811566 1939.45556641 350.89501953 C1911.07578853 352.10831288 1883.99383634 359.61638254 1859 373 C1858.06414062 373.46792969 1857.12828125 373.93585938 1856.1640625 374.41796875 C1843.22577234 381.04252873 1831.53034434 390.05144264 1821 400 C1819.67058052 401.12962233 1818.33736282 402.25479312 1817 403.375 C1789.63219469 427.39724193 1772.29638393 463.23145817 1764.25 498.1875 C1764.05108154 499.02200684 1763.85216309 499.85651367 1763.6472168 500.71630859 C1759.22505113 521.22407818 1759.69145647 542.53191172 1759.68332577 563.39960992 C1759.67957188 567.40812587 1759.66438831 571.41660246 1759.65071106 575.4250946 C1759.62861903 582.3420767 1759.61349824 589.25904446 1759.60334396 596.176054 C1759.58865282 606.17643412 1759.5630881 616.17676418 1759.53501268 626.17711461 C1759.48973235 642.40867177 1759.45304078 658.64023622 1759.421875 674.87182617 C1759.39161208 690.62346677 1759.35720458 706.37508954 1759.31738281 722.12670898 C1759.3149013 723.11028604 1759.3124198 724.09386309 1759.30986309 725.1072455 C1759.2904192 732.80139795 1759.27073774 740.49554979 1759.25098133 748.18970144 C1759.15448698 785.79311252 1759.07868132 823.39653927 1759 861 C1670.23 861 1581.46 861 1490 861 C1489.96261719 837.1678125 1489.92523437 813.335625 1489.88671875 788.78125 C1489.85643742 773.66926536 1489.82542743 758.55728747 1489.79101562 743.4453125 C1489.77296812 735.50293018 1489.75510456 727.56054748 1489.73754883 719.61816406 C1489.73534114 718.62284975 1489.73313345 717.62753543 1489.73085886 716.60206008 C1489.69558297 700.57760176 1489.67067163 684.55314348 1489.64965298 668.52866083 C1489.62781525 652.05745335 1489.59468995 635.58629583 1489.55129844 619.1151309 C1489.52491836 608.9687834 1489.50712283 598.82249801 1489.50065396 588.67611796 C1489.49535799 581.69847965 1489.47900195 574.72091922 1489.45433434 567.74332279 C1489.44046182 563.7302837 1489.4310941 559.71738351 1489.43499184 555.704319 C1489.47948443 497.7878455 1474.93013662 448.95733109 1435 406 C1434.38898438 405.33484375 1433.77796875 404.6696875 1433.1484375 403.984375 C1401.40770436 370.75790542 1353.14199622 352.0627401 1307.7109375 350.875 C1257.20202896 349.98657311 1209.70631905 368.2315922 1173 403 C1172.06671875 403.86882812 1171.1334375 404.73765625 1170.171875 405.6328125 C1157.54416438 417.63726702 1147.3318115 431.73363731 1139 447 C1138.65630371 447.62696777 1138.31260742 448.25393555 1137.95849609 448.89990234 C1120.11152649 481.90548995 1115.53199687 516.08213185 1115.56726015 553.09745157 C1115.56789213 557.24234616 1115.55118905 561.38717896 1115.53674316 565.53204346 C1115.5141024 572.68861687 1115.50209739 579.84514208 1115.49761391 587.00174904 C1115.49111596 597.34859514 1115.46811523 607.69535465 1115.44127061 618.0421656 C1115.39814184 634.83498292 1115.36809598 651.62779656 1115.34643555 668.4206543 C1115.32538394 684.71950077 1115.29807261 701.01831725 1115.26245117 717.31713867 C1115.26025235 718.32421298 1115.25805352 719.33128729 1115.25578807 720.368879 C1115.24471737 725.42179606 1115.23352476 730.47471284 1115.22227156 735.52762949 C1115.1292837 777.35173482 1115.06003358 819.17583185 1115 861 C1070.45 861 1025.9 861 980 861 C979.67 766.62 979.34 672.24 979 575 C977.35 585.23 975.7 595.46 974 606 C972.84782397 611.22226127 971.70396659 616.25771315 970.25 621.375 C969.91129883 622.59864258 969.57259766 623.82228516 969.22363281 625.08300781 C958.84071024 661.74146911 942.56591562 696.24086799 920 727 C919.58830566 727.56187012 919.17661133 728.12374023 918.75244141 728.70263672 C904.79374048 747.59249061 888.85244476 765.72357915 871 781 C869.63101562 782.20269531 869.63101562 782.20269531 868.234375 783.4296875 C804.00802129 839.41048646 719.10467695 865.28566631 634.6640625 860.26367188 C625.07253621 859.5734501 615.48757957 858.58416112 606 857 C604.74445312 856.79503906 603.48890625 856.59007813 602.1953125 856.37890625 C597.63523824 854.41105024 595.66676197 851.37442687 592.875 847.375 C591.74326006 845.82378554 590.60908063 844.27434841 589.47265625 842.7265625 C588.61244873 841.54368652 588.61244873 841.54368652 587.73486328 840.33691406 C585.04365301 836.71177127 582.18479681 833.23219139 579.3125 829.75 C574.58388916 823.98120722 569.98244686 818.1361299 565.45703125 812.20703125 C562.8559742 808.80145877 560.21308007 805.42960435 557.5625 802.0625 C557.10472168 801.48097168 556.64694336 800.89944336 556.17529297 800.30029297 C555.24740379 799.1220986 554.31934346 797.94403901 553.39111328 796.76611328 C551.09125763 793.84628952 548.79584055 790.92298107 546.5 788 C545.5833549 786.83331639 544.66668823 785.66664973 543.75 784.5 C516.25 749.50000001 516.25 749.50000001 514.87524414 747.75024414 C513.95784991 746.5826959 513.04036933 745.41521551 512.12280273 744.24780273 C509.84155755 741.3451721 507.56178786 738.44140726 505.28515625 735.53515625 C501.08999658 730.18304902 496.8817142 724.84357675 492.61914062 719.54492188 C487.84763534 713.61328589 483.16461867 707.62663868 478.5625 701.5625 C473.7206864 695.18436262 468.74228069 688.93776579 463.66870117 682.74291992 C459.49581456 677.63864755 455.45686201 672.44752035 451.45703125 667.20703125 C448.8559742 663.80145877 446.21308007 660.42960435 443.5625 657.0625 C443.10472168 656.48097168 442.64694336 655.89944336 442.17529297 655.30029297 C441.24740379 654.1220986 440.31934346 652.94403901 439.39111328 651.76611328 C437.09125763 648.84628952 434.79584055 645.92298107 432.5 643 C431.5833549 641.83331639 430.66668823 640.66664973 429.75 639.5 C391.25 590.5 391.25 590.5 389.87524414 588.75024414 C388.95784991 587.5826959 388.04036933 586.41521551 387.12280273 585.24780273 C384.84155755 582.3451721 382.56178786 579.44140726 380.28515625 576.53515625 C376.08985579 571.18286941 371.88153673 565.84313274 367.61865234 560.54443359 C362.2462681 553.86539558 356.9572726 547.13088304 351.81420898 540.27294922 C349.22829259 536.83786161 346.60780286 533.50487702 343.734375 530.3046875 C339.164413 525.14461459 335.32374154 520.78632299 335.125 513.5625 C335.34581024 511.01027776 335.6416999 508.53153023 336 506 C336.20492529 504.20087149 336.40649782 502.40135925 336.60546875 500.6015625 C337.96538191 488.97497816 339.962587 477.54534032 342 466 C318.57 489.43 295.14 512.86 271 537 C275.98666798 542.83450654 275.98666798 542.83450654 281.25216675 548.31858826 C282.04293106 549.09916595 282.83369537 549.87974365 283.64842224 550.68397522 C284.49646927 551.51585861 285.3445163 552.347742 286.21826172 553.20483398 C287.61190709 554.57897922 289.00554578 555.95313127 290.39893079 557.32754052 C291.88436188 558.7921033 293.37092939 560.25550586 294.85760117 561.71880913 C297.96396759 564.77794254 301.06253567 567.8448932 304.15921021 570.91383362 C304.68353571 571.43341989 305.20786121 571.95300615 305.74807537 572.48833746 C306.81934727 573.55000988 307.89058856 574.6117132 308.96179986 575.67344677 C316.16172451 582.80961808 323.36539 589.94172161 330.59570312 597.04711914 C335.48673224 601.85375893 340.36343646 606.67442514 345.22395718 611.51191956 C347.79234458 614.06703926 350.36743556 616.61446599 352.96017075 619.14489555 C355.84804522 621.9636734 358.70387358 624.81293286 361.55810547 627.66577148 C362.41829788 628.49563065 363.2784903 629.32548981 364.16474915 630.18049622 C370.49918418 636.59312194 370.49918418 636.59312194 370.52761841 641.58338928 C370.35350433 642.71087082 370.17939026 643.83835236 370 645 C371.14355705 644.84367662 372.28711411 644.68735325 373.4653244 644.5262928 C378.49758567 644.55426271 380.77933621 646.82136183 384.26727343 650.22529876 C385.02216035 651.00212418 385.77704728 651.7789496 386.55480957 652.57931519 C387.37835544 653.39461453 388.20190131 654.20991387 389.05040312 655.04991925 C391.32745914 657.31221556 393.58569107 659.59153273 395.83712292 661.87927985 C398.27109173 664.34370895 400.72811994 666.78495773 403.18237305 669.22915649 C407.98381316 674.01814918 412.76375977 678.82805816 417.53695256 683.64518724 C423.09327705 689.25088444 428.67131688 694.83476058 434.25057501 700.41761722 C444.20074505 710.37553915 454.13219464 720.35192127 464.05273438 730.33935547 C473.68662673 740.03815647 483.33167458 749.72566455 492.99023438 759.39990234 C493.5855317 759.99617065 494.18082903 760.59243896 494.79416567 761.20677601 C497.18677675 763.60324423 499.57940429 765.99969603 501.97206858 768.39611112 C511.16841954 777.60751159 520.35665566 786.82700425 529.54317394 796.04820969 C532.32087335 798.83639058 535.09888037 801.62426342 537.87763405 804.41139364 C543.72007767 810.27165529 549.55964875 816.13472349 555.39006382 822.00695549 C557.801796 824.4359194 560.21504528 826.86332026 562.63258362 829.28650665 C565.24678112 831.90861993 567.85474444 834.53677273 570.46105957 837.16671753 C571.23379227 837.93908151 572.00652497 838.71144548 572.80267382 839.50721443 C573.8402921 840.55820625 573.8402921 840.55820625 574.89887238 841.63043022 C575.50208832 842.23722331 576.10530427 842.8440164 576.72679949 843.46919715 C578 845 578 845 578 847 C554.49852436 853.9784994 529.80460131 859.4863193 505.19941044 860.16125488 C495.44448238 860.43315068 485.96383484 861.15442197 476.3311615 862.74804688 C435.3953094 869.42357538 386.33331165 875.55939695 350.56593525 850.01682377 C336.77159274 839.86718446 324.37236565 828.05928115 312.31640625 815.9375 C311.7550834 815.37380502 311.19376055 814.81011004 310.61542791 814.2293334 C296.15529604 799.67245648 282.32955977 784.56568836 268.68009603 769.2512846 C260.7528765 760.36857331 252.67202921 751.64758674 244.47583008 743.01269531 C243.88611614 742.39108969 243.29640221 741.76948407 242.68881816 741.12904191 C238.0699433 736.26244658 233.44342196 731.40314607 228.81448853 726.54611921 C206.44601333 703.07157035 184.79889314 679.02981665 163 655 C162.67 722.98 162.34 790.96 162 861 C108.54 861 55.08 861 0 861 C0 576.87 0 292.74 0 0 Z M517 396 C516.21625 396.72960938 515.4325 397.45921875 514.625 398.2109375 C508.01551233 404.56076672 502.48998042 411.68733731 497 419 C496.37222656 419.83273437 495.74445313 420.66546875 495.09765625 421.5234375 C486.23443762 433.74425189 478.88147965 447.11164618 473 461 C472.48824219 462.20398437 471.97648437 463.40796875 471.44921875 464.6484375 C451.61832195 513.37051579 453.90607762 568.85190439 474 617 C482.58389127 636.85707538 494.49161953 654.98169758 509 671 C509.86496094 671.98484375 510.72992188 672.9696875 511.62109375 673.984375 C516.44965451 679.42293659 521.37568998 684.39743964 527 689 C528.03135771 689.87877986 529.06259735 690.75769829 530.09375 691.63671875 C572.57269968 727.28455392 626.24536819 740.93273259 680.87548828 736.69970703 C731.3707048 731.07479644 778.88681901 704.56256989 811.5 665.8125 C813.01636365 663.88777989 814.5150954 661.94909327 816 660 C816.43747559 659.43845215 816.87495117 658.8769043 817.32568359 658.29833984 C843.91122585 623.89515117 857.50848297 581.56298885 857.3125 538.3125 C857.31067719 537.47583801 857.30885437 536.63917603 857.30697632 535.77716064 C857.26120163 523.28916881 856.762362 511.2217675 854 499 C853.82839355 498.19578613 853.65678711 497.39157227 853.47998047 496.56298828 C844.39649322 454.53866882 821.85551057 413.22645955 788 386 C787.27006836 385.40155273 787.27006836 385.40155273 786.52539062 384.79101562 C713.09591843 324.69640577 608.91611929 322.51099117 517 396 Z M3145 366 C3143.80663778 366.64313129 3142.61262438 367.28505574 3141.41796875 367.92578125 C3097.88625624 391.63507084 3064.82062108 433.19495101 3050.08837891 480.38183594 C3034.62654511 532.96277106 3041.28824521 586.37338099 3067.33203125 634.26953125 C3074.38079897 646.93125301 3083.13200117 658.02313077 3092.921875 668.67578125 C3094.34924152 670.27217802 3095.7238368 671.91685994 3097.05078125 673.59765625 C3099.9812567 677.20936447 3103.46217515 679.9990655 3107 683 C3108.42699219 684.25876953 3108.42699219 684.25876953 3109.8828125 685.54296875 C3149.34502675 720.13972411 3199.85335252 734.27470843 3251.59521484 731.87988281 C3290.25116332 729.32828142 3328.23614244 713.5140974 3358 689 C3358.56138672 688.54544434 3359.12277344 688.09088867 3359.70117188 687.62255859 C3373.53231101 676.38572176 3390.26519086 661.83702286 3397 645 C3441.22 645 3485.44 645 3531 645 C3531 574.38 3531 503.76 3531 431 C3487.769089 431.30414216 3487.769089 431.30414216 3444.54003906 431.78320312 C3436.15185547 431.79199219 3436.15185547 431.79199219 3432.21673584 431.77575684 C3429.48188552 431.77955905 3426.75879951 431.80865014 3424.02581787 431.87536621 C3401.62932114 432.39107995 3401.62932114 432.39107995 3395.64094543 428.44580078 C3391.84320879 424.79528771 3389.39254644 420.67590949 3387.08565521 415.98091125 C3385.32007551 412.75939428 3382.96085107 410.34823704 3380.4375 407.6875 C3379.53515625 406.73359375 3378.6328125 405.7796875 3377.703125 404.796875 C3376.36507812 403.41242188 3376.36507812 403.41242188 3375 402 C3373.69289063 400.61554688 3373.69289063 400.61554688 3372.359375 399.203125 C3351.41666398 377.52558201 3325.29755063 362.77885119 3297 353 C3296.27345215 352.74734375 3295.5469043 352.4946875 3294.79833984 352.234375 C3246.46916716 335.8013151 3189.47690814 341.04710976 3145 366 Z M2462 406 C2461.14792969 406.79921875 2460.29585937 407.5984375 2459.41796875 408.421875 C2450.30986231 417.20008152 2442.77203104 427.17829569 2435.6875 437.625 C2435.30335938 438.18533936 2434.91921875 438.74567871 2434.5234375 439.32299805 C2430.74482912 445.02743067 2428.13059454 450.73881092 2425 457 C2539.18 457 2653.36 457 2771 457 C2769.34405339 451.87170923 2769.34405339 451.87170923 2766.96875 447.37109375 C2766.57550537 446.73510254 2766.18226074 446.09911133 2765.77709961 445.44384766 C2765.1449353 444.45070557 2765.1449353 444.45070557 2764.5 443.4375 C2764.05857666 442.73931152 2763.61715332 442.04112305 2763.16235352 441.32177734 C2756.93779479 431.62245609 2749.89514837 422.73862236 2742.078125 414.265625 C2740.18181669 412.1982212 2738.36970394 410.08249907 2736.5625 407.9375 C2722.73368401 392.23570667 2704.50628093 380.42814076 2686 371 C2685.38801758 370.6798291 2684.77603516 370.3596582 2684.14550781 370.02978516 C2610.4896718 331.73283109 2520.72396582 349.97881085 2462 406 Z " fill="#F5F4DC" transform="translate(0,1335)"/>
<path d="M0 0 C3.71655106 3.57668086 6.97671197 7.34887411 10.125 11.4375 C11.09626402 12.68626803 12.0676208 13.93496393 13.0390625 15.18359375 C13.53051758 15.81765137 14.02197266 16.45170898 14.52832031 17.10498047 C16.83901995 20.08037041 19.17002229 23.03970025 21.5 26 C22.41677461 27.16658184 23.33344103 28.33324872 24.25 29.5 C24.930625 30.36625 24.930625 30.36625 25.625 31.25 C84.75 106.5 84.75 106.5 86.12475586 108.24975586 C87.04215009 109.4173041 87.95963067 110.58478449 88.87719727 111.75219727 C91.15844245 114.6548279 93.43821214 117.55859274 95.71484375 120.46484375 C99.91000342 125.81695098 104.1182858 131.15642325 108.38085938 136.45507812 C113.15236466 142.38671411 117.83538133 148.37336132 122.4375 154.4375 C127.2793136 160.81563738 132.25771931 167.06223421 137.33129883 173.25708008 C141.50418544 178.36135245 145.54313799 183.55247965 149.54296875 188.79296875 C152.1440258 192.19854123 154.78691993 195.57039565 157.4375 198.9375 C157.89527832 199.51902832 158.35305664 200.10055664 158.82470703 200.69970703 C159.75259621 201.8779014 160.68065654 203.05596099 161.60888672 204.23388672 C163.90874237 207.15371048 166.20415945 210.07701893 168.5 213 C169.4166451 214.16668361 170.33331177 215.33335027 171.25 216.5 C209.75 265.5 209.75 265.5 211.12475586 267.24975586 C212.04215009 268.4173041 212.95963067 269.58478449 213.87719727 270.75219727 C216.15844245 273.6548279 218.43821214 276.55859274 220.71484375 279.46484375 C224.91000342 284.81695098 229.1182858 290.15642325 233.38085938 295.45507812 C238.15236466 301.38671411 242.83538133 307.37336132 247.4375 313.4375 C252.2793136 319.81563738 257.25771931 326.06223421 262.33129883 332.25708008 C266.49890736 337.3548963 270.53332267 342.53899686 274.52734375 347.7734375 C277.67198304 351.89102489 280.87762871 355.96049865 284.09057617 360.02490234 C287.28794106 364.07302638 290.4096167 368.17114088 293.46484375 372.328125 C295.15825087 374.17234446 296.70921635 375.03025141 299 376 C289.34786297 375.66194206 279.76513916 375.02388629 270.1875 373.75 C269.34670898 373.65291748 268.50591797 373.55583496 267.63964844 373.45581055 C262.18462295 372.67138805 259.57042155 371.43974158 256 367 C255.17242188 365.99066406 254.34484375 364.98132812 253.4921875 363.94140625 C252.61642934 362.81771656 251.74417853 361.69128676 250.875 360.5625 C249.90373598 359.31373197 248.9323792 358.06503607 247.9609375 356.81640625 C247.46948242 356.18234863 246.97802734 355.54829102 246.47167969 354.89501953 C244.16098005 351.91962959 241.82997771 348.96029975 239.5 346 C238.58322539 344.83341816 237.66655897 343.66675128 236.75 342.5 C236.29625 341.9225 235.8425 341.345 235.375 340.75 C176.25 265.5 176.25 265.5 174.87524414 263.75024414 C173.95784991 262.5826959 173.04036933 261.41521551 172.12280273 260.24780273 C169.84155755 257.3451721 167.56178786 254.44140726 165.28515625 251.53515625 C161.08999658 246.18304902 156.8817142 240.84357675 152.61914062 235.54492188 C147.84763534 229.61328589 143.16461867 223.62663868 138.5625 217.5625 C133.7206864 211.18436262 128.74228069 204.93776579 123.66870117 198.74291992 C119.49581456 193.63864755 115.45686201 188.44752035 111.45703125 183.20703125 C108.8559742 179.80145877 106.21308007 176.42960435 103.5625 173.0625 C103.10472168 172.48097168 102.64694336 171.89944336 102.17529297 171.30029297 C101.24740379 170.1220986 100.31934346 168.94403901 99.39111328 167.76611328 C97.09125763 164.84628952 94.79584055 161.92298107 92.5 159 C91.5833549 157.83331639 90.66668823 156.66664973 89.75 155.5 C51.25 106.5 51.25 106.5 49.87524414 104.75024414 C48.95784991 103.5826959 48.04036933 102.41521551 47.12280273 101.24780273 C44.84155755 98.3451721 42.56178786 95.44140726 40.28515625 92.53515625 C36.08985579 87.18286941 31.88153673 81.84313274 27.61865234 76.54443359 C22.2462681 69.86539558 16.9572726 63.13088304 11.81420898 56.27294922 C9.22829259 52.83786161 6.60780286 49.50487702 3.734375 46.3046875 C-0.88386123 41.08866111 -4.67739503 36.74029249 -4.875 29.4375 C-4.65957369 26.92132073 -4.36705385 24.4925517 -4 22 C-3.77309064 20.16166111 -3.54795771 18.32310244 -3.32421875 16.484375 C-1.38445265 1.38445265 -1.38445265 1.38445265 0 0 Z " fill="#F1EBEC" transform="translate(340,1819)"/>
<path d="M0 0 C9.0208804 8.98445951 17.70523042 18.22722781 25.65234375 28.1796875 C29.5766481 32.89407642 33.81026862 37.31905716 38.00390625 41.79296875 C42.38116714 46.4639332 46.5514289 51.29747541 50.69921875 56.171875 C56.52478506 63.00885071 62.44147474 69.72877801 68.5390625 76.32421875 C71.17590452 79.19126127 73.75089553 82.10313026 76.296875 85.05078125 C77.58195143 86.52154533 78.88770875 87.97427609 80.203125 89.41796875 C80.94046875 90.22878906 81.6778125 91.03960938 82.4375 91.875 C83.11683594 92.61492188 83.79617188 93.35484375 84.49609375 94.1171875 C86 96 86 96 86 98 C87.98 98.495 87.98 98.495 90 99 C85.96107521 100.01130015 81.91846561 101.00702504 77.875 102 C76.73289063 102.28617188 75.59078125 102.57234375 74.4140625 102.8671875 C72.75117188 103.27324219 72.75117188 103.27324219 71.0546875 103.6875 C70.03874512 103.93886719 69.02280273 104.19023437 67.97607422 104.44921875 C60.34367131 105.86174549 60.34367131 105.86174549 57.26831055 103.8894043 C56.58442261 103.11463745 56.58442261 103.11463745 55.88671875 102.32421875 C55.10554688 101.46183594 55.10554688 101.46183594 54.30859375 100.58203125 C53.77363281 99.95683594 53.23867188 99.33164063 52.6875 98.6875 C52.11773437 98.048125 51.54796875 97.40875 50.9609375 96.75 C46.96433606 92.23014149 43.15317719 87.56494641 39.3828125 82.85546875 C35.44211474 78.13309159 31.20117297 73.69310784 26.99609375 69.20703125 C23.56909262 65.55008668 20.25866238 61.80741841 17 58 C16.03007991 56.8722823 15.06001352 55.74469042 14.08984375 54.6171875 C12.01407902 52.20184424 9.93892927 49.78598271 7.8671875 47.3671875 C7.43519043 46.86300293 7.00319336 46.35881836 6.55810547 45.83935547 C6.04393066 45.23236816 5.52975586 44.62538086 5 44 C4.12593506 43.12408203 3.25187012 42.24816406 2.35131836 41.34570312 C-0.82657662 37.50476256 -0.64349121 33.91449461 -0.48828125 29.1015625 C-0.48120651 28.26660248 -0.47413177 27.43164246 -0.46684265 26.57138062 C-0.43899925 23.92165027 -0.37628406 21.27408441 -0.3125 18.625 C-0.28740393 16.82164525 -0.26459305 15.01825715 -0.24414062 13.21484375 C-0.18920611 8.80907017 -0.10300712 4.40490121 0 0 Z " fill="#FEFEFE" transform="translate(4338,2082)"/>
<path d="M0 0 C0.33 0 0.66 0 1 0 C0.95875 1.0725 0.9175 2.145 0.875 3.25 C1.60973295 8.93921598 5.33314164 12.40747996 8.99609375 16.54296875 C12.31065322 20.29057525 15.30605443 24.25392522 18.3125 28.25 C22.60601753 33.92176955 26.98671745 39.50154324 31.5 45 C35.94625136 50.41863912 40.26676808 55.91338099 44.5 61.5 C49.31909125 67.85954296 54.27595762 74.08461518 59.33154297 80.25732422 C63.50428726 85.36156374 67.54320736 90.55257054 71.54296875 95.79296875 C74.1440258 99.19854123 76.78691993 102.57039565 79.4375 105.9375 C80.12416748 106.80979248 80.12416748 106.80979248 80.82470703 107.69970703 C81.75259621 108.8779014 82.68065654 110.05596099 83.60888672 111.23388672 C85.90874237 114.15371048 88.20415945 117.07701893 90.5 120 C91.4166451 121.16668361 92.33331177 122.33335027 93.25 123.5 C120.75 158.5 120.75 158.5 122.12475586 160.24975586 C123.04215009 161.4173041 123.95963067 162.58478449 124.87719727 163.75219727 C127.15844245 166.6548279 129.43821214 169.55859274 131.71484375 172.46484375 C135.91000342 177.81695098 140.1182858 183.15642325 144.38085938 188.45507812 C149.15236466 194.38671411 153.83538133 200.37336132 158.4375 206.4375 C163.2793136 212.81563738 168.25771931 219.06223421 173.33129883 225.25708008 C177.50418544 230.36135245 181.54313799 235.55247965 185.54296875 240.79296875 C188.1440258 244.19854123 190.78691993 247.57039565 193.4375 250.9375 C193.89527832 251.51902832 194.35305664 252.10055664 194.82470703 252.69970703 C195.75259621 253.8779014 196.68065654 255.05596099 197.60888672 256.23388672 C199.90874237 259.15371048 202.20415945 262.07701893 204.5 265 C205.4166451 266.16668361 206.33331177 267.33335027 207.25 268.5 C245.75 317.5 245.75 317.5 247.12646484 319.25195312 C248.03813357 320.41219985 248.94991641 321.57235691 249.86181641 322.73242188 C252.23092158 325.74656785 254.59769805 328.76250217 256.9609375 331.78125 C257.69280273 332.71517578 257.69280273 332.71517578 258.43945312 333.66796875 C259.36337693 334.84707151 260.28660993 336.02671608 261.20898438 337.20703125 C263.35971638 339.95027846 265.54513197 342.63993009 267.8203125 345.28125 C270 348 270 348 270 350 C264.06047207 349.94789888 264.06047207 349.94789888 261.41308594 347.58154297 C259.8034567 345.58990495 258.32955412 343.54512392 256.875 341.4375 C255.74332322 339.87713529 254.60914229 338.31858414 253.47265625 336.76171875 C252.89918457 335.96685059 252.32571289 335.17198242 251.73486328 334.35302734 C249.05255037 330.71495644 246.1898275 327.23445043 243.3125 323.75 C238.58354963 317.98149589 233.9824365 312.13611632 229.45703125 306.20703125 C226.8559742 302.80145877 224.21308007 299.42960435 221.5625 296.0625 C221.10472168 295.48097168 220.64694336 294.89944336 220.17529297 294.30029297 C219.24740379 293.1220986 218.31934346 291.94403901 217.39111328 290.76611328 C215.09125763 287.84628952 212.79584055 284.92298107 210.5 282 C209.5833549 280.83331639 208.66668823 279.66664973 207.75 278.5 C180.25 243.5 180.25 243.5 178.87524414 241.75024414 C177.95784991 240.5826959 177.04036933 239.41521551 176.12280273 238.24780273 C173.84155755 235.3451721 171.56178786 232.44140726 169.28515625 229.53515625 C165.08999658 224.18304902 160.8817142 218.84357675 156.61914062 213.54492188 C151.84763534 207.61328589 147.16461867 201.62663868 142.5625 195.5625 C137.7206864 189.18436262 132.74228069 182.93776579 127.66870117 176.74291992 C123.49581456 171.63864755 119.45686201 166.44752035 115.45703125 161.20703125 C112.8559742 157.80145877 110.21308007 154.42960435 107.5625 151.0625 C107.10472168 150.48097168 106.64694336 149.89944336 106.17529297 149.30029297 C105.24740379 148.1220986 104.31934346 146.94403901 103.39111328 145.76611328 C101.09125763 142.84628952 98.79584055 139.92298107 96.5 137 C95.5833549 135.83331639 94.66668823 134.66664973 93.75 133.5 C55.25 84.5 55.25 84.5 53.87524414 82.75024414 C52.95784991 81.5826959 52.04036933 80.41521551 51.12280273 79.24780273 C48.84155755 76.3451721 46.56178786 73.44140726 44.28515625 70.53515625 C40.08985579 65.18286941 35.88153673 59.84313274 31.61865234 54.54443359 C26.2462681 47.86539558 20.9572726 41.13088304 15.81420898 34.27294922 C13.22829259 30.83786161 10.60780286 27.50487702 7.734375 24.3046875 C2.54646213 18.42543203 -0.67128529 14.20803253 -0.6875 6.125 C-0.51427773 4.07782776 -0.30566951 2.03162159 0 0 Z " fill="#FFFFFF" transform="translate(336,1841)"/>
<path d="M0 0 C3.71655106 3.57668086 6.97671197 7.34887411 10.125 11.4375 C11.09626402 12.68626803 12.0676208 13.93496393 13.0390625 15.18359375 C13.53051758 15.81765137 14.02197266 16.45170898 14.52832031 17.10498047 C16.83901995 20.08037041 19.17002229 23.03970025 21.5 26 C22.41677461 27.16658184 23.33344103 28.33324872 24.25 29.5 C24.930625 30.36625 24.930625 30.36625 25.625 31.25 C62.75 78.5 62.75 78.5 64.12475586 80.24975586 C65.04215009 81.4173041 65.95963067 82.58478449 66.87719727 83.75219727 C69.15844245 86.6548279 71.43821214 89.55859274 73.71484375 92.46484375 C77.91000342 97.81695098 82.1182858 103.15642325 86.38085938 108.45507812 C91.15236466 114.38671411 95.83538133 120.37336132 100.4375 126.4375 C105.2793136 132.81563738 110.25771931 139.06223421 115.33129883 145.25708008 C119.50418544 150.36135245 123.54313799 155.55247965 127.54296875 160.79296875 C130.1440258 164.19854123 132.78691993 167.57039565 135.4375 170.9375 C135.89527832 171.51902832 136.35305664 172.10055664 136.82470703 172.69970703 C137.75259621 173.8779014 138.68065654 175.05596099 139.60888672 176.23388672 C141.90874237 179.15371048 144.20415945 182.07701893 146.5 185 C147.4166451 186.16668361 148.33331177 187.33335027 149.25 188.5 C187.75 237.5 187.75 237.5 189.12475586 239.24975586 C190.04215009 240.4173041 190.95963067 241.58478449 191.87719727 242.75219727 C194.15844245 245.6548279 196.43821214 248.55859274 198.71484375 251.46484375 C202.91000342 256.81695098 207.1182858 262.15642325 211.38085938 267.45507812 C216.15236466 273.38671411 220.83538133 279.37336132 225.4375 285.4375 C230.2793136 291.81563738 235.25771931 298.06223421 240.33129883 304.25708008 C244.5018907 309.35854553 248.53945202 314.54605621 252.53515625 319.78515625 C255.17370411 323.24047346 257.86775106 326.65095812 260.5625 330.0625 C264.14862339 334.61262822 267.69874579 339.18718875 271.1875 343.8125 C271.92355469 344.78832031 272.65960937 345.76414062 273.41796875 346.76953125 C275 349 275 349 275 350 C272.1875 350.3125 272.1875 350.3125 269 350 C267.93504556 348.37406955 266.94918432 346.69612113 266 345 C264.35788335 342.82807883 262.6992591 340.6883714 261 338.5625 C260.01033966 337.31386312 259.02075853 336.06516345 258.03125 334.81640625 C257.52722656 334.18234863 257.02320313 333.54829102 256.50390625 332.89501953 C254.15791653 329.93892014 251.82941413 326.96916509 249.5 324 C248.58342691 322.83325982 247.66675999 321.66659334 246.75 320.5 C164.25 215.5 164.25 215.5 162.87524414 213.75024414 C161.95784991 212.5826959 161.04036933 211.41521551 160.12280273 210.24780273 C157.84155755 207.3451721 155.56178786 204.44140726 153.28515625 201.53515625 C149.08999658 196.18304902 144.8817142 190.84357675 140.61914062 185.54492188 C135.84763534 179.61328589 131.16461867 173.62663868 126.5625 167.5625 C121.7206864 161.18436262 116.74228069 154.93776579 111.66870117 148.74291992 C107.49581456 143.63864755 103.45686201 138.44752035 99.45703125 133.20703125 C96.8559742 129.80145877 94.21308007 126.42960435 91.5625 123.0625 C90.87583252 122.19020752 90.87583252 122.19020752 90.17529297 121.30029297 C89.24740379 120.1220986 88.31934346 118.94403901 87.39111328 117.76611328 C85.09125763 114.84628952 82.79584055 111.92298107 80.5 109 C79.5833549 107.83331639 78.66668823 106.66664973 77.75 105.5 C50.25 70.5 50.25 70.5 48.87524414 68.75024414 C47.95784991 67.5826959 47.04036933 66.41521551 46.12280273 65.24780273 C43.84155755 62.3451721 41.56178786 59.44140726 39.28515625 56.53515625 C34.59963908 50.55745998 29.88572687 44.60550483 25.125 38.6875 C20.15374679 32.50620874 15.31501655 26.23092278 10.53955078 19.8972168 C7.56481279 15.96993679 4.5002746 12.23500286 1.13378906 8.63452148 C-0.78335634 5.87067815 -0.39281124 3.20795846 0 0 Z " fill="#FEE1E8" transform="translate(337,1842)"/>
</svg>
