<?xml version="1.0" encoding="UTF-8"?>
<svg version="1.1" xmlns="http://www.w3.org/2000/svg" width="516" height="405">
<path d="M0 0 C5.94 0 11.88 0 18 0 C18.33 14.52 18.66 29.04 19 44 C21.475 40.7 23.95 37.4 26.5 34 C33.11847529 26.48923873 38.90365106 23.19119036 48.8828125 22.53125 C52.4705109 22.39441877 56.03627154 22.4103224 59.625 22.5 C60.94286499 22.52755371 60.94286499 22.52755371 62.28735352 22.55566406 C75.45848822 22.94337515 87.0129625 24.6572875 97 34 C101.28777541 38.77391775 103.41370014 42.96530032 106 49 C106.33 40.75 106.66 32.5 107 24 C111.62 24 116.24 24 121 24 C121.495 26.475 121.495 26.475 122 29 C122.60328125 28.72285156 123.2065625 28.44570312 123.828125 28.16015625 C124.62734375 27.79792969 125.4265625 27.43570313 126.25 27.0625 C127.43335937 26.52302734 127.43335937 26.52302734 128.640625 25.97265625 C136.56804876 22.70456268 146.35931336 22.62534087 154.375 25.625 C165.37634795 30.78300904 171.25968724 37.93927022 176 49 C176.33 40.75 176.66 32.5 177 24 C181.62 24 186.24 24 191 24 C191 25.98 191 27.96 191 30 C191.67546875 29.65066406 192.3509375 29.30132812 193.046875 28.94140625 C194.38492188 28.25884766 194.38492188 28.25884766 195.75 27.5625 C197.07257813 26.88380859 197.07257813 26.88380859 198.421875 26.19140625 C206.42443076 22.49325548 216.44421494 22.83083422 224.75 25.4375 C234.1774014 29.386441 241.00761112 36.69023728 245 46 C245.72881089 47.97820098 246.42771172 49.97097793 247 52 C247.18433594 51.32195312 247.36867187 50.64390625 247.55859375 49.9453125 C250.69563595 39.87889265 256.81396046 32.04106287 266.125 26.89453125 C274.8986227 22.70878209 285.50294629 22.56093074 294.75 25.4375 C303.5621646 29.1157339 310.98101333 36.3302209 315 45 C315.83890191 47.33472172 316.44427455 49.57501622 317 52 C317.38478516 50.87464844 317.38478516 50.87464844 317.77734375 49.7265625 C321.50787115 39.75336805 326.65501766 31.92292599 336.3125 26.9375 C345.28810255 22.87607598 355.50740883 22.46753221 364.875 25.625 C373.40722939 29.2010079 377.57123113 33.39972359 383 41 C383.33 29.45 383.66 17.9 384 6 C389.94 6 395.88 6 402 6 C402 9.96 402 13.92 402 18 C407.94 18 413.88 18 420 18 C420 23.94 420 29.88 420 36 C414.06 36 408.12 36 402 36 C402.09681668 41.23319623 402.19946906 46.46557765 402.31738281 51.69824219 C402.35571565 53.47909473 402.39056089 55.26002584 402.421875 57.04101562 C402.46743271 59.59794234 402.52544107 62.1543261 402.5859375 64.7109375 C402.60326431 65.90944839 402.60326431 65.90944839 402.62094116 67.13217163 C402.57258944 71.53457212 402.57258944 71.53457212 405 75 C408.08347826 75.16681109 408.08347826 75.16681109 411 75 C411.66 73.68 412.32 72.36 413 71 C417.95 71 422.9 71 428 71 C426.7934375 67.968125 426.7934375 67.968125 425.5625 64.875 C420.46809478 52.07367405 420.86234964 39.8136579 426.21875 27.109375 C432.24007293 15.13363273 442.06713066 6.66569557 454.6875 2.1875 C467.43020617 -1.61295623 480.10115068 -0.37571646 492.1875 5.125 C502.29950601 10.64063964 511.00182142 19.4760304 514.87109375 30.4765625 C515.4375 32.6875 515.4375 32.6875 516 36 C510.52623338 36.58508194 505.4538115 36.88909054 500 36 C497.58761636 33.70333956 496.618835 31.64342283 495.27734375 28.61328125 C492.21157319 22.34110846 485.3075421 19.26119434 479 17 C470.14056921 14.50118619 461.66042181 16.15611658 453.57421875 20.21875 C445.25912436 25.24973148 440.87584495 32.35089753 438.46875 41.6640625 C436.84407564 49.76035641 438.86387602 57.22618096 442.875 64.3125 C448.15969525 70.99608517 454.28001519 76.75428788 463 78 C473.30857093 78.81971769 480.43104557 77.71263629 489 72 C485.37 71.67 481.74 71.34 478 71 C478 67.04 478 63.08 478 59 C490.54 59 503.08 59 516 59 C516 70.55 516 82.1 516 94 C512.04 94 508.08 94 504 94 C503.67 89.71 503.34 85.42 503 81 C501.39125 82.2375 499.7825 83.475 498.125 84.75 C486.2057632 93.39759061 486.2057632 93.39759061 479.35546875 92.75 C476.08505051 91.7086728 474.9124607 89.76244324 473 87 C472.67 89.31 472.34 91.62 472 94 C459.01303919 94.92033581 448.25748062 90.9615228 438 83 C435.75292381 80.76596293 433.91574479 78.53706742 432 76 C431.64808594 76.65226562 431.29617188 77.30453125 430.93359375 77.9765625 C426.68984129 85.48900158 422.41919459 91.22266214 414 94 C405.7280083 95.11151232 398.777222 94.00453226 392 89 C387.94783599 84.90580109 385.40637665 80.62550661 384 75 C383.443125 75.886875 382.88625 76.77375 382.3125 77.6875 C377.01525189 85.54140605 369.18804735 91.5415459 360 94 C348.21559095 95.12606575 338.36796064 93.49436851 329 86 C321.58918465 78.84978475 318.45206937 72.16448559 317 62 C298.85 62 280.7 62 262 62 C265.64811655 71.12029137 267.51563589 75.43285084 275.9375 79.375 C283.57853285 80.93439446 287.93556737 79.97625773 294.80078125 76.484375 C297.11878899 75.14237045 297.11878899 75.14237045 298.3125 72.84375 C300 71 300 71 303.57421875 70.609375 C304.94585748 70.6358801 306.31721938 70.6834691 307.6875 70.75 C308.38939453 70.76804687 309.09128906 70.78609375 309.81445312 70.8046875 C311.54355436 70.85173787 313.27195205 70.92348127 315 71 C312.73973289 79.17265003 306.90401542 85.37348009 299.875 90 C291.21856903 94.78470696 281.6389448 95.28802445 272 93.41796875 C262.59484852 90.4922185 254.70822122 83.63173891 250 75 C249.34 73.35 248.68 71.7 248 70 C247.67 77.92 247.34 85.84 247 94 C242.05 94 237.1 94 232 94 C231.9906543 92.83017578 231.98130859 91.66035156 231.97167969 90.45507812 C231.93159938 86.086211 231.86579141 81.71803477 231.79248047 77.34960938 C231.76437503 75.46428346 231.74310894 73.57884201 231.72900391 71.69335938 C231.70742911 68.972059 231.66070651 66.25213269 231.609375 63.53125 C231.60753204 62.28075867 231.60753204 62.28075867 231.60565186 61.00500488 C231.46366061 55.242684 230.21825675 50.82819035 227 46 C221.28299349 40.56884382 216.71774589 39.53682003 208.9765625 39.6875 C203.28058995 40.28550237 200.31689269 42.74163587 196.1875 46.6875 C190.42268128 55.41708264 191.56965672 66.97177975 191.375 77.0625 C191.33675081 78.7077014 191.29769523 80.35288426 191.2578125 81.99804688 C191.16107386 85.99859292 191.08091475 89.99897861 191 94 C181.43 94 171.86 94 162 94 C161.96132813 89.80796875 161.96132813 89.80796875 161.921875 85.53125 C161.88338658 82.80393702 161.83824835 80.07680878 161.79248047 77.34960938 C161.76437503 75.46428346 161.74310894 73.57884201 161.72900391 71.69335938 C161.70742911 68.972059 161.66070651 66.25213269 161.609375 63.53125 C161.60753204 62.28075867 161.60753204 62.28075867 161.60565186 61.00500488 C161.46366061 55.242684 160.21825675 50.82819035 157 46 C151.22321213 40.51205152 146.71716013 39.62037951 138.91796875 39.734375 C135.38885509 40.055633 132.97213692 41.09478403 130 43 C129.01 43.33 128.02 43.66 127 44 C122.9123958 50.76550981 121.55347597 58.18920767 121.48828125 65.97265625 C121.46135445 67.18543495 121.46135445 67.18543495 121.43388367 68.42271423 C121.38031456 70.96925862 121.34605921 73.51562157 121.3125 76.0625 C121.27927956 77.80406144 121.24478563 79.54559908 121.20898438 81.28710938 C121.12462007 85.52460737 121.05755742 89.76205658 121 94 C116.38 94 111.76 94 107 94 C106.505 81.625 106.505 81.625 106 69 C105.195625 70.815 104.39125 72.63 103.5625 74.5 C99.0992254 83.40554556 92.33899518 89.46038084 83 93 C76.98739765 94.78055606 71.13226448 95.52325973 65 94 C61.00065162 90.46776711 58.25291985 86.44786246 55.34863281 82.00195312 C53.14512616 78.73099829 50.65785587 75.69606051 48.1875 72.625 C47.27553225 71.46365982 46.36530658 70.30094902 45.45703125 69.13671875 C43.98460002 67.2569695 42.50514376 65.38264496 41.01171875 63.51953125 C36.28138673 57.50218765 36.28138673 57.50218765 36 53 C34.35 54.65 32.7 56.3 31 58 C32.40204309 61.21478567 34.07097512 63.23914137 36.625 65.625 C38.5390625 67.4140625 38.5390625 67.4140625 40 69 C40 69.66 40 70.32 40 71 C40.5662207 71.24024902 41.13244141 71.48049805 41.71582031 71.72802734 C44.47040587 73.26195111 46.33249671 75.10726018 48.546875 77.3515625 C49.39121094 78.20234375 50.23554687 79.053125 51.10546875 79.9296875 C52.41451172 81.26386719 52.41451172 81.26386719 53.75 82.625 C54.63816406 83.5221875 55.52632812 84.419375 56.44140625 85.34375 C58.63216969 87.55807004 60.81812763 89.77692435 63 92 C56.96060625 96.0262625 48.99908674 95.98307642 41.95996094 94.97949219 C32.34316995 91.79716247 25.25043201 81.51931671 19 74 C18.67 80.6 18.34 87.2 18 94 C12.06 94 6.12 94 0 94 C0 62.98 0 31.96 0 0 Z M55 44 C50.77317984 50.38121048 48.64732893 56.34738866 50 64 C52.13821588 70.49426205 55.95490228 75.01714567 61.6875 78.75 C68.38143697 81.27601395 74.62877344 81.91405136 81.25390625 78.94140625 C87.53523223 75.55483005 89.89691306 71.20617389 93 65 C93.68770265 57.67202093 93.73956363 50.94768769 89 45 C83.88900482 40.03313267 78.72435892 37.62162617 71.625 36.6875 C65.43943065 37.4238773 59.28715475 39.35558236 55 44 Z M335.625 45.375 C331.90526697 50.13585396 330.49306622 54.75359614 330.69140625 60.85546875 C331.67265898 67.67455417 334.85887394 72.71200632 340.2890625 76.84765625 C345.56518486 80.40120898 350.76140952 80.77863686 357 80 C360.94857268 78.6905588 364.06118042 77.12826748 366.7421875 73.90625 C369.86912345 71.26620719 372.83523541 71.33278958 376.75 71.25 C379.1425 71.1675 381.535 71.085 384 71 C384 63.08 384 55.16 384 47 C381.669375 46.95875 379.33875 46.9175 376.9375 46.875 C370.06529223 46.57269053 366.61378285 44.99486226 362 40 C352.99343845 34.64474719 342.26561185 38.14090351 335.625 45.375 Z M266 46.1875 C263.9034127 48.56064098 263.9034127 48.56064098 264 50 C276.21 50 288.42 50 301 50 C298.36937406 44.73874812 294.48072135 41.21603174 289 39 C279.80307678 37.87009229 272.21610629 39.00175039 266 46.1875 Z " fill="#F5F4DC" transform="translate(0,145)"/>
<path d="M0 0 C2.83022801 0.36397611 3.90783172 0.90764775 5.95703125 2.9609375 C6.87548828 4.15589844 6.87548828 4.15589844 7.8125 5.375 C8.43769531 6.16648438 9.06289063 6.95796875 9.70703125 7.7734375 C10.13371094 8.50820312 10.56039062 9.24296875 11 10 C10.67 10.99 10.34 11.98 10 13 C8.33036458 11.02327092 6.66419927 9.0437967 5 7.0625 C4.52304687 6.49853516 4.04609375 5.93457031 3.5546875 5.35351562 C0 1.11328125 0 1.11328125 0 0 Z " fill="#F8EFF3" transform="translate(42,209)"/>
<path d="M0 0 C2 0 2 0 3.5625 1.125 C5.49026016 3.63946978 5.65505107 5.89545967 6 9 C3.35247996 6.42215154 1.05567935 4.08351902 -1 1 C-0.67 0.67 -0.34 0.34 0 0 Z " fill="#F7EFF1" transform="translate(58,227)"/>
</svg>
